<svg xmlns="http://www.w3.org/2000/svg" viewBox="0 0 512 512" width="100%" height="100%">
  <defs>
    <linearGradient id="bg-grad" x1="0%" y1="0%" x2="100%" y2="100%">
      <stop offset="0%" stop-color="#8b5cf6" />
      <stop offset="100%" stop-color="#06b6d4" />
    </linearGradient>
    <linearGradient id="screen-grad" x1="0%" y1="0%" x2="0%" y2="100%">
      <stop offset="0%" stop-color="#0c0f16" />
      <stop offset="100%" stop-color="#1e293b" />
    </linearGradient>
  </defs>
  <rect width="480" height="480" x="16" y="16" rx="120" fill="url(#bg-grad)" />
  <rect width="320" height="380" x="96" y="66" rx="40" fill="#090b11" opacity="0.9" />
  <rect width="320" height="380" x="96" y="66" rx="40" fill="none" stroke="#ffffff" stroke-opacity="0.15" stroke-width="4" />
  <rect width="260" height="80" x="126" y="106" rx="16" fill="url(#screen-grad)" stroke="#ffffff" stroke-opacity="0.08" stroke-width="2" />
  <rect width="80" height="12" x="146" y="126" rx="4" fill="#10b981" />
  <rect width="120" height="12" x="146" y="148" rx="4" fill="#34d399" opacity="0.7" />
  <circle cx="346" cy="146" r="14" fill="#10b981" />
  <rect width="60" height="45" x="126" y="216" rx="12" fill="#1f2937" />
  <rect width="60" height="45" x="206" y="216" rx="12" fill="#1f2937" />
  <rect width="60" height="45" x="286" y="216" rx="12" fill="#1f2937" />
  <rect width="60" height="45" x="126" y="281" rx="12" fill="#1f2937" />
  <rect width="60" height="45" x="206" y="281" rx="12" fill="#1f2937" />
  <rect width="60" height="45" x="286" y="281" rx="12" fill="#1f2937" />
  <rect width="60" height="45" x="126" y="346" rx="12" fill="#1f2937" />
  <rect width="60" height="45" x="206" y="346" rx="12" fill="#a78bfa" />
  <rect width="60" height="45" x="286" y="346" rx="12" fill="#34d399" />
  <line x1="226" y1="368.5" x2="246" y2="368.5" stroke="#ffffff" stroke-width="4" stroke-linecap="round" />
  <line x1="236" y1="358.5" x2="236" y2="378.5" stroke="#ffffff" stroke-width="4" stroke-linecap="round" />
  <line x1="306" y1="363.5" x2="326" y2="363.5" stroke="#ffffff" stroke-width="4" stroke-linecap="round" />
  <line x1="306" y1="373.5" x2="326" y2="373.5" stroke="#ffffff" stroke-width="4" stroke-linecap="round" />
</svg>